<?xml version="1.0" standalone="no"?>
<!DOCTYPE svg PUBLIC "-//W3C//DTD SVG 20010904//EN"
 "http://www.w3.org/TR/2001/REC-SVG-20010904/DTD/svg10.dtd">
<svg version="1.0" xmlns="http://www.w3.org/2000/svg"
 width="1277.000000pt" height="1280.000000pt" viewBox="0 0 1277.000000 1280.000000"
 preserveAspectRatio="xMidYMid meet">
<g transform="translate(0.000000,1280.000000) scale(0.100000,-0.100000)"
fill="#000000" stroke="none">
<path d="M6325 12790 c-33 -5 -123 -16 -200 -25 -571 -66 -1128 -292 -1595
-645 -169 -127 -428 -387 -551 -551 -386 -518 -560 -1116 -508 -1746 23 -282
61 -452 197 -878 75 -236 90 -310 72 -344 -15 -30 -49 -27 -165 15 -256 91
-490 134 -776 141 -225 6 -340 -3 -534 -42 -377 -76 -748 -252 -1075 -511
-117 -93 -371 -348 -468 -471 -440 -557 -681 -1217 -719 -1968 -6 -128 23
-422 63 -626 70 -362 212 -707 418 -1019 358 -540 823 -899 1419 -1095 298
-98 552 -141 897 -151 989 -32 1982 359 2676 1051 208 207 364 411 545 709 53
87 81 118 95 103 35 -35 -92 -756 -201 -1141 -188 -666 -483 -1222 -866 -1631
-420 -449 -912 -759 -1604 -1012 -158 -57 -371 -121 -630 -189 -276 -72 -455
-133 -590 -199 -227 -111 -331 -240 -295 -362 7 -21 18 -46 25 -56 42 -57 453
-96 1220 -117 226 -6 545 -15 710 -20 385 -13 1002 -13 1660 0 1910 38 2232
46 2950 75 571 23 901 41 1400 75 444 31 812 78 902 115 35 15 36 16 29 63
-10 72 -45 132 -101 175 -85 64 -238 116 -730 251 -751 205 -1221 403 -1670
701 -201 133 -329 238 -506 414 -278 278 -453 523 -635 895 -172 349 -293 713
-408 1221 -93 416 -99 574 -23 583 40 5 125 -81 270 -273 163 -215 267 -333
438 -500 180 -175 319 -287 526 -425 451 -299 943 -478 1488 -541 232 -27 619
-15 865 27 935 160 1712 727 2110 1539 154 314 245 626 285 975 32 288 35 321
35 402 0 84 -30 397 -50 524 -81 512 -321 1039 -652 1434 -548 652 -1241 1025
-1948 1047 -352 11 -631 -53 -949 -218 -152 -79 -188 -86 -184 -32 2 17 43
125 92 240 99 232 127 315 165 483 41 187 57 331 63 573 13 527 -68 952 -256
1342 -237 493 -577 889 -1001 1168 -365 239 -762 378 -1240 433 -172 19 -401
26 -485 14z"/>
</g>
</svg>
